:SAMPLES-PER-SECOND 30
:FULLY-SPECIFIED
:DEGREES
495
root  -2.56571 40.9661 1.00743 -178.694 -85.3382 178.678
RightUpLeg  3.29155 -1.65225 -2.20059
RightLeg  -2.02995 -15.0321 0.523703
RightFoot  0.238426 -0.385295 3.81357
RightToes  -3.13006e-008 1.75238e-005 3.56266e-009
Spine  -4.7338 0.399742 1.37545
Spine1  7.32351 0.419741 -0.598384
HEad  -1.6257 -4.45938 20.0833
LeftShoulder1  2.20157 -5.78617 -17.0376
LeftArm  -57.5811 -48.7034 -34.2431
LeftForeArm  61.3055 -78.0124 -54.2577
LeftHand  -0.433847 -1.83489 7.15814
RightShoulder  1.89999 6.02979 12.9653
RightArm  -44.5794 53.8078 33.137
RightForeArm  38.1463 71.3122 30.6159
RightHand  -0.837489 6.5541 -8.46421
LeftUpLeg  3.73848 1.25589 1.69018
LeftLeg  -2.40765 17.4985 -1.52406
LeftFoot  -0.475783 0.272565 -2.88911
LeftToes  4.76866e-008 1.46233e-008 1.30548e-009
496
root  -2.65472 40.9656 1.03471 -178.733 -85.8005 178.81
RightUpLeg  3.44783 -1.73055 -2.25559
RightLeg  -2.13596 -15.4018 0.61237
RightFoot  0.1641 -0.386026 3.82522
RightToes  -3.13006e-008 1.75238e-005 3.56266e-009
Spine  -5.02736 0.0782073 1.54616
Spine1  7.62989 0.102621 -0.743934
HEad  -2.0097 -3.92276 20.5834
LeftShoulder1  2.10975 -5.07692 -17.9949
LeftArm  -63.9478 -45.8898 -32.9602
LeftForeArm  68.6735 -78.9897 -63.2412
LeftHand  -0.433707 -1.36997 7.60021
RightShoulder  1.8295 5.4134 13.608
RightArm  -50.883 51.5091 29.4748
RightForeArm  41.0328 72.8523 34.0592
RightHand  -0.978736 6.84878 -9.59826
LeftUpLeg  3.75423 1.24329 1.67073
LeftLeg  -2.46527 17.0526 -1.53941
LeftFoot  -0.548466 0.26284 -2.76338
LeftToes  4.76866e-008 1.46233e-008 1.30548e-009
497
root  -2.75562 40.959 1.06024 -176.494 -86.029 176.511
RightUpLeg  3.52338 -1.98038 -2.53417
RightLeg  -1.7346 -15.3633 0.551267
RightFoot  -0.153217 -0.395883 4.02928
RightToes  -3.13006e-008 1.75238e-005 3.56266e-009
Spine  -5.46169 -0.149894 1.28599
Spine1  8.19707 -0.16482 -0.519044
HEad  -2.0446 -3.40881 20.5065
LeftShoulder1  2.0295 -4.4438 -19.0151
LeftArm  -67.4407 -40.6189 -33.1039
LeftForeArm  80.1827 -79.7807 -77.9578
LeftHand  -0.408766 -1.13477 7.42188
RightShoulder  1.7941 4.885 14.5646
RightArm  -54.6844 47.6589 27.5084
RightForeArm  45.6776 74.7622 39.517
RightHand  -1.06252 7.2461 -10.0768
LeftUpLeg  4.02341 1.14476 1.45691
LeftLeg  -2.62927 16.9298 -1.60155
LeftFoot  -0.606034 0.25551 -2.67827
LeftToes  4.76866e-008 1.46233e-008 1.30548e-009
498
root  -2.86289 40.9465 1.0786 -173.646 -86.298 173.43
RightUpLeg  3.78144 -2.18844 -2.78245
RightLeg  -1.30417 -15.3578 0.381585
RightFoot  -0.528805 -0.403879 4.22555
RightToes  -3.13006e-008 1.75238e-005 3.56266e-009
Spine  -6.29432 -0.448717 0.930343
Spine1  9.69522 -0.471282 -0.399982
HEad  -2.12938 -3.38104 20.543
LeftShoulder1  1.94168 -3.85159 -19.9369
LeftArm  -68.1628 -33.3774 -33.7311
LeftForeArm  93.0939 -79.776 -95.1761
LeftHand  -0.414222 -0.875243 7.78633
RightShoulder  1.88014 4.6663 16.3629
RightArm  -56.8256 43.1576 25.7467
RightForeArm  50.8237 76.4375 46.4222
RightHand  -1.07926 7.04381 -10.3945
LeftUpLeg  4.37572 1.18296 1.30453
LeftLeg  -2.55699 16.6042 -1.70264
LeftFoot  -0.801721 0.250994 -2.66993
LeftToes  4.76866e-008 1.46233e-008 1.30548e-009
499
root  -2.95628 40.9362 1.0919 -172.254 -86.5158 171.691
RightUpLeg  4.19814 -2.27605 -2.87304
RightLeg  -0.973667 -15.4846 0.203956
RightFoot  -0.842517 -0.390658 4.18674
RightToes  -3.13006e-008 1.75238e-005 3.56266e-009
Spine  -7.16835 -0.819262 0.213605
Spine1  11.5476 -0.944262 0.136404
HEad  -2.21146 -3.52404 20.4005
LeftShoulder1  1.94745 -3.57497 -21.1255
LeftArm  -66.7768 -23.9074 -33.9016
LeftForeArm  104.66 -78.9037 -110.877
LeftHand  -0.327473 -0.554257 6.50658
RightShoulder  1.8921 4.27667 17.7682
RightArm  -56.3717 38.1623 25.6067
RightForeArm  58.7346 77.93 55.0429
RightHand  -1.05929 6.26156 -10.843
LeftUpLeg  4.86384 1.24485 1.22614
LeftLeg  -2.51113 16.3298 -1.71774
LeftFoot  -0.99108 0.234731 -2.52201
LeftToes  4.76866e-008 1.46233e-008 1.30548e-009
500
root  -3.06471 40.9273 1.10287 -172.204 -86.6891 171.268
RightUpLeg  4.78763 -2.33505 -2.89693
RightLeg  -0.923591 -15.5402 0.132444
RightFoot  -1.0385 -0.39048 4.24999
RightToes  -3.13006e-008 1.75238e-005 3.56266e-009
Spine  -8.04436 -1.14786 -0.305089
Spine1  13.3134 -1.28918 0.276134
HEad  -2.28843 -5.2423 20.9399
LeftShoulder1  1.85553 -3.16361 -21.4664
LeftArm  -62.6679 -14.6942 -35.6801
LeftForeArm  114.342 -77.1218 -125.201
LeftHand  -0.290136 -0.38503 5.89966
RightShoulder  2.06988 4.4536 19.6187
RightArm  -54.4994 32.4567 24.9146
RightForeArm  67.7182 79.0198 65.2436
RightHand  -1.04919 6.48732 -10.5577
LeftUpLeg  5.43838 1.30599 1.20879
LeftLeg  -2.52041 16.1136 -1.68318
LeftFoot  -1.16438 0.230871 -2.51387
LeftToes  4.76866e-008 1.46233e-008 1.30548e-009
501
root  -3.14079 40.9174 1.12636 -173.475 -86.748 172.219
RightUpLeg  5.25605 -2.42 -2.91512
RightLeg  -0.888354 -15.47 0.144226
RightFoot  -1.18644 -0.389362 4.2877
RightToes  -3.13006e-008 1.75238e-005 3.56266e-009
Spine  -8.73024 -1.21443 -0.611472
Spine1  14.8302 -1.37028 0.372421
HEad  -2.63014 -9.28134 21.7623
LeftShoulder1  1.86378 -3.0431 -22.1325
LeftArm  -57.3525 -8.28795 -37.5191
LeftForeArm  120.939 -75.5817 -133.093
LeftHand  -0.234145 -0.689508 4.61005
RightShoulder  2.14482 4.42045 20.7516
RightArm  -51.8446 27.285 24.7122
RightForeArm  78.184 79.6991 75.8347
RightHand  -0.86413 5.78985 -9.22308
LeftUpLeg  5.81195 1.33413 1.20648
LeftLeg  -2.31299 16.0724 -1.53709
LeftFoot  -1.41875 0.240482 -2.68675
LeftToes  4.76866e-008 1.46233e-008 1.30548e-009
502
root  -3.17609 40.9111 1.13669 -174.312 -86.8107 172.801
RightUpLeg  5.53816 -2.38593 -2.86189
RightLeg  -0.757595 -15.5437 0.0367942
RightFoot  -1.29655 -0.389762 4.32912
RightToes  -3.13006e-008 1.75238e-005 3.56266e-009
Spine  -9.26794 -1.17843 -1.1805
Spine1  15.9401 -1.43221 0.864956
HEad  -2.60581 -13.5683 21.42
LeftShoulder1  2.04317 -3.44965 -23.1198
LeftArm  -51.8968 -5.15743 -39.0518
LeftForeArm  125.281 -75.228 -135.137
LeftHand  -0.193458 -2.05401 3.17893
RightShoulder  2.16978 4.38802 21.2067
RightArm  -48.8521 23.5901 24.9818
RightForeArm  85.3437 79.9153 83.8755
RightHand  -0.575777 5.4574 -6.48785
LeftUpLeg  6.03225 1.42297 1.26106
LeftLeg  -2.06017 15.9956 -1.46754
LeftFoot  -1.62871 0.247992 -2.81974
LeftToes  4.76866e-008 1.46233e-008 1.30548e-009
503
root  -3.17292 40.9075 1.14043 -172.949 -86.9584 171.175
RightUpLeg  5.68667 -2.40659 -2.91123
RightLeg  -0.43209 -15.6471 -0.142184
RightFoot  -1.42344 -0.394682 4.43448
RightToes  -3.13006e-008 1.75238e-005 3.56266e-009
Spine  -9.65202 -1.34844 -1.64455
Spine1  16.8751 -1.54992 0.826726
HEad  -1.26066 -17.9958 20.6768
LeftShoulder1  2.22461 -3.96075 -23.5486
LeftArm  -46.8444 -4.58738 -40.5229
LeftForeArm  126.178 -75.5987 -134.097
LeftHand  -0.0739073 -2.63548 1.27678
RightShoulder  2.23754 4.51215 21.6578
RightArm  -44.7295 20.754 24.3766
RightForeArm  85.7504 79.8994 84.9182
RightHand  -0.591309 5.82056 -6.43936
LeftUpLeg  6.27487 1.41672 1.1845
LeftLeg  -2.01591 15.8788 -1.44447
LeftFoot  -1.66963 0.248536 -2.83809
LeftToes  4.76866e-008 1.46233e-008 1.30548e-009
504
root  -3.12428 40.906 1.14521 -170.918 -87.2328 168.946
RightUpLeg  5.63525 -2.48574 -2.98836
RightLeg  0.0354614 -15.7681 -0.29761
RightFoot  -1.50182 -0.405833 4.61779
RightToes  -3.13006e-008 1.75238e-005 3.56266e-009
Spine  -9.33247 -1.83886 -2.57157
Spine1  16.8946 -2.12002 1.31215
HEad  0.693776 -23.1997 18.6616
LeftShoulder1  2.51297 -4.68277 -24.5051
LeftArm  -42.4565 -5.66971 -40.7579
LeftForeArm  125.942 -76.6869 -129.969
LeftHand  -0.071227 -3.54934 1.17531
RightShoulder  2.18004 4.42218 21.2206
RightArm  -40.1067 18.9765 23.4477
RightForeArm  81.6654 79.7961 81.4596
RightHand  -0.409814 5.66278 -4.59056
LeftUpLeg  6.29085 1.39289 1.12174
LeftLeg  -1.84529 15.6911 -1.39918
LeftFoot  -1.66942 0.244029 -2.77249
LeftToes  4.76866e-008 1.46233e-008 1.30548e-009
505
root  -3.04261 40.9068 1.14619 -167.252 -87.8112 165.307
RightUpLeg  5.32198 -2.57346 -3.05226
RightLeg  0.523467 -16.2226 -0.360223
RightFoot  -1.57541 -0.41197 4.69193
RightToes  -3.13006e-008 1.75238e-005 3.56266e-009
Spine  -8.39052 -2.66178 -3.40231
Spine1  15.8799 -2.89813 1.29285
HEad  3.22727 -29.6095 16.0341
LeftShoulder1  2.73644 -5.2899 -24.9477
LeftArm  -39.3974 -8.94813 -41.4008
LeftForeArm  120.792 -78.1871 -121.478
LeftHand  -0.0178713 -3.65404 0.482874
RightShoulder  2.13553 4.2987 21.0805
RightArm  -36.8581 18.5729 21.5138
RightForeArm  78.015 79.679 77.8966
RightHand  -0.0459923 5.37981 -0.809603
LeftUpLeg  5.89336 1.32377 1.08402
LeftLeg  -1.51259 15.2239 -1.28883
LeftFoot  -1.63367 0.244012 -2.7723
LeftToes  4.76866e-008 1.46233e-008 1.30548e-009
506
root  -2.93432 40.9107 1.14701 -166.894 -87.7415 165.158
RightUpLeg  4.60081 -2.37039 -2.96516
RightLeg  1.15587 -16.3459 -0.680321
RightFoot  -1.53599 -0.43262 4.91729
RightToes  -3.13006e-008 1.75238e-005 3.56266e-009
Spine  -7.06688 -3.27452 -4.09233
Spine1  14.4327 -3.44836 1.14745
HEad  4.59108 -36.4611 13.0109
LeftShoulder1  2.9032 -5.80689 -25.0152
LeftArm  -36.7074 -12.065 -42.3994
LeftForeArm  113.156 -79.0354 -113.269
LeftHand  -0.00123228 -3.46308 0.263954
RightShoulder  2.1372 4.49661 20.3676
RightArm  -36.3699 17.1709 19.1852
RightForeArm  75.0634 79.5405 77.7018
RightHand  0.248928 5.28876 2.37972
LeftUpLeg  5.4796 1.28586 1.07164
LeftLeg  -1.48718 15.3625 -1.32439
LeftFoot  -1.47266 0.2465 -2.80758
LeftToes  4.76866e-008 1.46233e-008 1.30548e-009
507
root  -2.82962 40.9145 1.14663 -172.156 -87.4158 170.705
RightUpLeg  3.97027 -1.99969 -2.6547
RightLeg  1.3379 -16.4439 -0.848947
RightFoot  -1.37777 -0.435991 4.88999
RightToes  -3.13006e-008 1.75238e-005 3.56266e-009
Spine  -6.20711 -3.86877 -4.8627
Spine1  14.0321 -4.05252 1.1372
HEad  4.59866 -42.1029 10.5707
LeftShoulder1  2.90584 -5.87145 -24.8202
LeftArm  -34.4277 -15.5748 -43.8695
LeftForeArm  105.804 -79.4563 -106.52
LeftHand  -0.0362118 -3.26624 0.723162
RightShoulder  2.02591 4.30623 19.5395
RightArm  -38.474 15.0738 16.3803
RightForeArm  70.17 79.315 77.1808
RightHand  0.293277 5.01403 2.95968
LeftUpLeg  4.94902 1.33411 1.24077
LeftLeg  -1.29027 15.6614 -1.25701
LeftFoot  -1.43447 0.249684 -2.85109
LeftToes  4.76866e-008 1.46233e-008 1.30548e-009
508
root  -2.72327 40.9135 1.15663 -177.609 -86.7786 176.614
RightUpLeg  3.18269 -1.66501 -2.3614
RightLeg  1.35246 -16.2658 -0.843583
RightFoot  -1.12478 -0.435246 4.77949
RightToes  -3.13006e-008 1.75238e-005 3.56266e-009
Spine  -5.31987 -4.42231 -5.58545
Spine1  13.4627 -4.62285 1.10628
HEad  4.06794 -46.9964 8.58086
LeftShoulder1  3.02016 -6.21633 -24.8991
LeftArm  -32.7024 -17.5303 -44.751
LeftForeArm  105.343 -79.4505 -106.31
LeftHand  -0.12344 -2.97226 1.94679
RightShoulder  1.90599 4.05156 18.7671
RightArm  -43.8887 12.947 14.5246
RightForeArm  62.5939 78.9498 73.4215
RightHand  0.128937 4.98343 1.14751
LeftUpLeg  4.24511 1.40642 1.45492
LeftLeg  -1.04486 16.2195 -1.19703
LeftFoot  -1.43707 0.259764 -3.00024
LeftToes  4.76866e-008 1.46233e-008 1.30548e-009
